<!-- Generator: Adobe Illustrator 24.2.1, SVG Export Plug-In  -->
<svg version="1.1" xmlns="http://www.w3.org/2000/svg" xmlns:xlink="http://www.w3.org/1999/xlink" x="0px" y="0px" width="172px"
	 height="160px" viewBox="0 0 172 160" style="overflow:visible;enable-background:new 0 0 172 160;" xml:space="preserve">
<style type="text/css">
	.st0{fill:#FFFFFF;}
	.st1{fill:none;stroke:#1B1B25;stroke-width:5;stroke-miterlimit:10;}
	.st2{fill:#1B1B25;stroke:#1B1B25;stroke-miterlimit:10;}
	.st3{fill:#1B1B25;}
	.st4{fill:#FFFFFF;stroke:#000000;stroke-width:0.25;stroke-miterlimit:10;}
	.st5{fill:#A9A9B5;}
</style>
<defs>
</defs>
<g>
	<ellipse class="st0" cx="86" cy="80" rx="83.5" ry="77.5"/>
	<ellipse class="st1" cx="86" cy="80" rx="83.5" ry="77.5"/>
</g>
<ellipse class="st2" cx="58" cy="64.33" rx="21" ry="19.83"/>
<ellipse class="st2" cx="115" cy="64.25" rx="21" ry="19.75"/>
<g>
	<path class="st0" d="M105.5,32.4c18.51-2.35,30,6.1,45.5,26.6"/>
	<path class="st3" d="M105.5,32.4c4.52-1.21,9.38-1.49,14.12-0.57l1.78,0.35c0.58,0.16,1.15,0.36,1.73,0.53
		c1.17,0.33,2.27,0.82,3.39,1.29c0.28,0.12,0.56,0.23,0.83,0.36l0.79,0.43l1.59,0.87c1.05,0.6,2.02,1.3,3.04,1.95
		c0.96,0.72,1.88,1.48,2.82,2.22c0.88,0.8,1.78,1.58,2.65,2.39l2.46,2.56c0.8,0.86,1.56,1.77,2.31,2.67
		c2.99,3.63,5.66,7.49,7.98,11.56c-3.32-3.32-6.46-6.73-9.71-9.99c-0.83-0.79-1.64-1.61-2.46-2.41l-2.52-2.32l-2.59-2.21l-2.7-2.04
		c-3.64-2.64-7.64-4.69-11.94-5.95C114.78,32.83,110.19,32.42,105.5,32.4z"/>
</g>
<g>
	<path class="st0" d="M67,31.4C48.49,29.05,37,37.5,21.5,58"/>
	<path class="st3" d="M67,31.4c-4.69,0.02-9.28,0.43-13.58,1.69c-4.3,1.26-8.31,3.3-11.94,5.95l-2.7,2.04l-2.59,2.21l-2.52,2.32
		c-0.82,0.8-1.63,1.62-2.46,2.41c-3.25,3.26-6.39,6.67-9.71,9.99c2.32-4.07,4.98-7.93,7.98-11.56c0.76-0.9,1.51-1.81,2.31-2.67
		l2.46-2.56c0.87-0.81,1.76-1.59,2.65-2.39c0.94-0.74,1.87-1.5,2.82-2.22c1.01-0.65,1.99-1.35,3.04-1.95l1.59-0.87l0.79-0.43
		c0.27-0.13,0.56-0.24,0.83-0.36c1.12-0.47,2.22-0.96,3.39-1.29c0.58-0.18,1.15-0.38,1.73-0.53l1.78-0.35
		C57.62,29.91,62.48,30.19,67,31.4z"/>
</g>
<path class="st4" d="M67.36,128.58"/>
<path class="st2" d="M103.45,138.5c0.99-2.55,1.55-5.35,1.55-8.29c0-11.6-8.51-21-19-21s-19,9.4-19,21c0,2.95,0.55,5.75,1.55,8.29
	H103.45z"/>
<g>
	<path class="st5" d="M77.08,138c-0.39-0.7-0.58-1.44-0.58-2.19c0-3.48,4.15-6.31,9.25-6.31s9.25,2.83,9.25,6.31
		c0,0.75-0.19,1.49-0.58,2.19H77.08z"/>
	<g>
		<path class="st5" d="M85.75,130c4.82,0,8.75,2.61,8.75,5.81c0,0.58-0.13,1.14-0.39,1.69H77.39c-0.26-0.55-0.39-1.11-0.39-1.69
			C77,132.61,80.93,130,85.75,130 M85.75,129c-5.38,0-9.75,3.05-9.75,6.81c0,0.96,0.28,1.86,0.79,2.69h17.91
			c0.51-0.83,0.79-1.73,0.79-2.69C95.5,132.05,91.13,129,85.75,129L85.75,129z"/>
	</g>
</g>
<g>
	<ellipse class="st5" cx="58" cy="66" rx="9.5" ry="5"/>
	<g>
		<path class="st5" d="M58,61.5c5.38,0,9,2.33,9,4.5s-3.62,4.5-9,4.5s-9-2.33-9-4.5S52.62,61.5,58,61.5 M58,60.5
			c-5.52,0-10,2.46-10,5.5s4.48,5.5,10,5.5s10-2.46,10-5.5S63.52,60.5,58,60.5L58,60.5z"/>
	</g>
</g>
<g>
	<ellipse class="st5" cx="114.5" cy="66.5" rx="9.5" ry="5"/>
	<g>
		<path class="st5" d="M114.5,62c5.38,0,9,2.33,9,4.5s-3.62,4.5-9,4.5s-9-2.33-9-4.5S109.12,62,114.5,62 M114.5,61
			c-5.52,0-10,2.46-10,5.5s4.48,5.5,10,5.5s10-2.46,10-5.5S120.02,61,114.5,61L114.5,61z"/>
	</g>
</g>
</svg>
